<svg width="131" height="25" viewBox="0 0 131 25" fill="none" xmlns="http://www.w3.org/2000/svg">
<path d="M52.2126 14.3856L49.9475 8.99809C49.8551 8.77774 49.5018 8.77774 49.4092 8.99809L47.1445 14.386C47.1284 14.4243 47.123 14.4654 47.1289 14.506C47.1347 14.5465 47.1516 14.5851 47.178 14.6187C47.2045 14.6522 47.2397 14.6796 47.2808 14.6985C47.3218 14.7174 47.3674 14.7272 47.4137 14.7272H51.9434C51.9897 14.7272 52.0353 14.7173 52.0763 14.6984C52.1174 14.6795 52.1526 14.6521 52.179 14.6185C52.2054 14.585 52.2223 14.5463 52.2281 14.5058C52.2339 14.4653 52.2286 14.4241 52.2124 14.3858L52.2126 14.3856ZM53.259 17.4139H46.0983C46.0397 17.4139 45.9825 17.4297 45.9344 17.4593C45.8863 17.4888 45.8496 17.5306 45.8292 17.579L44.4195 20.9313C44.3991 20.9798 44.3624 21.0216 44.3143 21.0511C44.2662 21.0806 44.209 21.0964 44.1504 21.0964H41.0467C40.9998 21.0964 40.9536 21.0863 40.9122 21.0669C40.8707 21.0474 40.8353 21.0194 40.809 20.9851C40.7828 20.9508 40.7664 20.9113 40.7614 20.8702C40.7564 20.829 40.7629 20.7874 40.7804 20.749L47.926 5.04252C47.9474 4.99561 47.9842 4.95542 48.0317 4.92714C48.0792 4.89885 48.1352 4.88376 48.1925 4.88381H51.1644C51.2815 4.88381 51.3869 4.94662 51.4307 5.04252L58.5762 20.7488C58.5937 20.7872 58.6003 20.8289 58.5953 20.8701C58.5903 20.9113 58.574 20.9508 58.5477 20.9851C58.5214 21.0195 58.486 21.0476 58.4445 21.067C58.403 21.0865 58.3567 21.0966 58.3098 21.0966H55.2067C55.1481 21.0966 55.0909 21.0807 55.0428 21.0512C54.9947 21.0216 54.958 20.9798 54.9376 20.9313L53.5277 17.579C53.5073 17.5306 53.4706 17.4888 53.4225 17.4593C53.3744 17.4297 53.3172 17.4139 53.2586 17.4139H53.259ZM60.0303 10.396H62.6849C62.761 10.396 62.834 10.4227 62.8878 10.4702C62.9417 10.5176 62.9719 10.5821 62.9719 10.6492V20.8432C62.9719 20.9103 62.9417 20.9748 62.8878 21.0223C62.834 21.0698 62.761 21.0964 62.6849 21.0964H60.0303C59.9542 21.0964 59.8812 21.0698 59.8273 21.0223C59.7735 20.9748 59.7433 20.9103 59.7433 20.8432V10.6491C59.7433 10.5819 59.7735 10.5175 59.8273 10.47C59.8812 10.4225 59.9542 10.3958 60.0303 10.3958V10.396ZM72.6532 12.8756C72.6532 12.9428 72.623 13.0072 72.5692 13.0547C72.5153 13.1022 72.4423 13.1289 72.3662 13.1289H72.2858C70.9733 13.1289 70.0105 13.4068 69.3982 13.9627C68.7854 14.5185 68.4796 15.4374 68.4796 16.7189V20.8432C68.4796 20.9103 68.4494 20.9748 68.3956 21.0223C68.3417 21.0698 68.2687 21.0964 68.1926 21.0964H65.5641C65.4879 21.0964 65.4149 21.0698 65.3611 21.0223C65.3073 20.9748 65.277 20.9103 65.277 20.8432V10.6491C65.277 10.5819 65.3073 10.5175 65.3611 10.47C65.4149 10.4225 65.4879 10.3958 65.5641 10.3958H68.1662C68.2423 10.3958 68.3153 10.4225 68.3692 10.47C68.423 10.5175 68.4532 10.5819 68.4532 10.6491V12.6654H68.5059C68.8208 11.8317 69.3195 11.1912 70.0023 10.7431C70.6845 10.2955 71.5246 10.0714 72.522 10.0714H72.6532V12.8755V12.8756ZM79.9115 12.7814C79.8354 12.7814 79.7624 12.8081 79.7086 12.8556C79.6547 12.9031 79.6245 12.9675 79.6245 13.0347V17.2748C79.6245 17.7072 79.7202 18.016 79.9131 18.2012C80.1054 18.3865 80.438 18.4792 80.9104 18.4792H81.1747C81.2508 18.4792 81.3239 18.5058 81.3777 18.5533C81.4315 18.6008 81.4618 18.6653 81.4618 18.7324V20.8661C81.4618 20.9333 81.4315 20.9977 81.3777 21.0452C81.3239 21.0927 81.2508 21.1194 81.1747 21.1194H80.0442C78.8717 21.1194 77.9706 20.8531 77.3406 20.3204C76.7105 19.7877 76.3955 18.9967 76.3955 17.9464V13.0347C76.3955 12.9675 76.3652 12.9031 76.3114 12.8556C76.2576 12.8081 76.1846 12.7814 76.1084 12.7814H74.4514C74.3753 12.7814 74.3023 12.7547 74.2485 12.7073C74.1946 12.6598 74.1644 12.5953 74.1644 12.5282V10.6491C74.1644 10.5819 74.1946 10.5175 74.2485 10.47C74.3023 10.4225 74.3753 10.3958 74.4514 10.3958H76.1086C76.1848 10.3958 76.2578 10.3691 76.3116 10.3216C76.3654 10.2741 76.3957 10.2097 76.3957 10.1425V6.36425C76.3957 6.29708 76.4259 6.23266 76.4797 6.18516C76.5336 6.13767 76.6066 6.11098 76.6827 6.11098H79.3373C79.4134 6.11098 79.4864 6.13767 79.5402 6.18516C79.5941 6.23266 79.6243 6.29708 79.6243 6.36425V10.1425C79.6243 10.2097 79.6545 10.2741 79.7084 10.3216C79.7622 10.3691 79.8352 10.3958 79.9114 10.3958H81.8309C81.907 10.3958 81.98 10.4225 82.0339 10.47C82.0877 10.5175 82.1179 10.5819 82.1179 10.6491V12.5283C82.1179 12.5955 82.0877 12.6599 82.0339 12.7074C81.98 12.7549 81.907 12.7816 81.8309 12.7816H79.9115V12.7814ZM92.067 17.9233C92.6707 17.3675 92.9725 16.6418 92.9725 15.746C92.9725 14.8508 92.6707 14.1248 92.067 13.5689C91.4632 13.0131 90.6712 12.7352 89.6912 12.7352C88.7111 12.7352 87.9196 13.0131 87.3157 13.5689C86.7121 14.1248 86.4102 14.8508 86.4102 15.746C86.4102 16.6418 86.7121 17.3675 87.3157 17.9233C87.9196 18.4792 88.7111 18.7571 89.6912 18.7571C90.6712 18.7571 91.4632 18.4792 92.067 17.9233ZM85.9377 20.7721C85.0452 20.3245 84.3406 19.6719 83.8247 18.815C83.3082 17.9581 83.0502 16.9352 83.0502 15.746C83.0502 14.5574 83.3082 13.5342 83.8247 12.6773C84.3406 11.8204 85.0452 11.1683 85.9377 10.7202C86.8302 10.2724 87.81 10.0485 88.8776 10.0485C89.8225 10.0485 90.6318 10.2106 91.3059 10.5348C91.9791 10.8589 92.5172 11.3147 92.9201 11.9014H92.9725V10.6491C92.9725 10.5819 93.0027 10.5175 93.0566 10.47C93.1104 10.4225 93.1834 10.3958 93.2595 10.3958H95.8879C95.964 10.3958 96.037 10.4225 96.0908 10.47C96.1447 10.5175 96.1749 10.5819 96.1749 10.6491V20.843C96.1749 20.9102 96.1447 20.9746 96.0908 21.0221C96.037 21.0696 95.964 21.0963 95.8879 21.0963H93.2595C93.1834 21.0963 93.1104 21.0696 93.0566 21.0221C93.0027 20.9746 92.9725 20.9102 92.9725 20.843V19.5908H92.9201C92.5172 20.1779 91.9791 20.6331 91.3057 20.9573C90.6318 21.2815 89.8227 21.4436 88.8776 21.4436C87.81 21.4436 86.8302 21.2197 85.9377 20.7721ZM107.106 17.9233C107.71 17.3675 108.012 16.6418 108.012 15.746C108.012 14.8508 107.71 14.1248 107.106 13.5689C106.502 13.0131 105.71 12.7352 104.73 12.7352C103.75 12.7352 102.959 13.0131 102.355 13.5689C101.751 14.1248 101.449 14.8508 101.449 15.746C101.449 16.6418 101.751 17.3675 102.355 17.9233C102.959 18.4792 103.75 18.7571 104.73 18.7571C105.71 18.7571 106.502 18.4792 107.106 17.9233ZM103.116 20.9573C102.442 20.6331 101.904 20.1779 101.502 19.5908H101.449V20.843C101.449 20.9102 101.419 20.9746 101.365 21.0221C101.311 21.0696 101.238 21.0963 101.162 21.0963H98.5076C98.4315 21.0963 98.3585 21.0696 98.3046 21.0221C98.2508 20.9746 98.2206 20.9102 98.2206 20.843V5.13657C98.2206 5.0694 98.2508 5.00498 98.3046 4.95748C98.3585 4.90998 98.4315 4.8833 98.5076 4.8833H101.162C101.238 4.8833 101.311 4.90998 101.365 4.95748C101.419 5.00498 101.449 5.0694 101.449 5.13657V11.9012H101.502C101.904 11.3145 102.442 10.8589 103.116 10.5348C103.79 10.2104 104.599 10.0483 105.544 10.0483C106.612 10.0483 107.592 10.2722 108.484 10.72C109.377 11.1681 110.081 11.8202 110.597 12.6769C111.113 13.5343 111.372 14.5575 111.372 15.7462C111.372 16.9354 111.113 17.9581 110.597 18.8152C110.081 19.6721 109.377 20.3246 108.484 20.7721C107.592 21.2199 106.612 21.4439 105.545 21.4439C104.599 21.4439 103.79 21.2818 103.116 20.9575L103.116 20.9573ZM115.844 21.0964H113.19C113.114 21.0964 113.041 21.0698 112.987 21.0223C112.933 20.9748 112.903 20.9103 112.903 20.8432V5.13708C112.903 5.06991 112.933 5.00549 112.987 4.95799C113.041 4.91049 113.114 4.88381 113.19 4.88381H115.844C115.92 4.88381 115.993 4.91049 116.047 4.95799C116.101 5.00549 116.131 5.06991 116.131 5.13708V20.8432C116.131 20.9103 116.101 20.9748 116.047 21.0223C115.993 21.0698 115.92 21.0964 115.844 21.0964ZM122.106 12.8743C121.666 13.1772 121.369 13.6145 121.215 14.1866C121.173 14.3443 121.312 14.4956 121.496 14.4956H126.548C126.723 14.4956 126.861 14.3571 126.832 14.2045C126.731 13.6633 126.468 13.2319 126.043 12.9091C125.545 12.5309 124.893 12.3418 124.088 12.3418C123.283 12.3418 122.622 12.5192 122.106 12.8743ZM128.576 11.5424C129.609 12.5386 130.125 13.9477 130.125 15.7693V16.0719C130.125 16.1391 130.095 16.2035 130.041 16.251C129.987 16.2985 129.914 16.3252 129.838 16.3252H121.398C121.356 16.3253 121.315 16.3334 121.277 16.3491C121.239 16.3648 121.205 16.3877 121.178 16.4161C121.151 16.4444 121.131 16.4777 121.12 16.5135C121.109 16.5493 121.107 16.5868 121.114 16.6234C121.249 17.3001 121.588 17.8377 122.132 18.236C122.753 18.6919 123.537 18.9193 124.482 18.9193C125.701 18.9193 126.831 18.4992 127.869 17.6589C127.996 17.5562 128.197 17.578 128.295 17.7028L129.586 19.3372C129.626 19.3881 129.644 19.4503 129.636 19.512C129.628 19.5737 129.594 19.6306 129.542 19.6719C128.909 20.1611 128.204 20.574 127.448 20.8996C126.608 21.2623 125.619 21.4439 124.482 21.4439C123.169 21.4439 122.023 21.2082 121.043 20.7375C120.062 20.2667 119.301 19.6028 118.759 18.7456C118.217 17.8887 117.945 16.8967 117.945 15.7693C117.945 14.6425 118.208 13.6466 118.733 12.7816C119.258 11.9171 119.993 11.2454 120.938 10.7666C121.883 10.2882 122.985 10.0487 124.245 10.0487C126.1 10.0487 127.544 10.5467 128.576 11.5424ZM63.3186 6.62732C63.3186 7.58265 62.4409 8.35715 61.358 8.35715C60.2749 8.35715 59.3971 7.58265 59.3971 6.62715C59.3971 5.67165 60.2751 4.89715 61.358 4.89715C62.4409 4.89715 63.3186 5.67165 63.3186 6.62715" fill="white"/>
<path d="M15.1173 0.315496L2.49511 4.92382C1.7932 5.18013 1.80047 6.05999 2.50678 6.30701L15.1816 10.7419C16.2952 11.1316 17.5354 11.1316 18.649 10.7419L31.324 6.30684C32.0301 6.05999 32.0378 5.1803 31.3355 4.92399L18.7137 0.315327C17.5622 -0.105109 16.2686 -0.105109 15.1171 0.315327" fill="#FCB400"/>
<path d="M18.0402 13.1634V24.2426C18.0402 24.7694 18.6424 25.1304 19.1975 24.9362L33.3211 20.0991C33.4786 20.044 33.6137 19.9484 33.7089 19.8248C33.8041 19.7011 33.855 19.555 33.855 19.4055V8.32646C33.855 7.79949 33.2528 7.43867 32.6976 7.63284L18.5741 12.47C18.4166 12.5251 18.2815 12.6207 18.1863 12.7444C18.0911 12.868 18.0402 13.0141 18.0402 13.1636" fill="#18BFFF"/>
<path d="M14.7421 13.7351L10.5505 15.5208L10.1249 15.7024L1.27676 19.4432C0.716072 19.6819 0 19.3212 0 18.7715V8.3729C0 8.174 0.115582 8.00228 0.270584 7.87311C0.334173 7.81724 0.406315 7.7695 0.484908 7.73128C0.696171 7.61934 0.997755 7.58945 1.25418 7.67894L14.6716 12.3698C15.3536 12.6086 15.4072 13.4518 14.7421 13.7353" fill="#F82B60"/>
<path d="M14.742 13.7351L10.5505 15.5208L0.270569 7.87294C0.33417 7.81713 0.406311 7.76945 0.484893 7.73128C0.696155 7.61934 0.99774 7.58945 1.25416 7.67894L14.6716 12.3698C15.3536 12.6086 15.4072 13.4518 14.742 13.7353" fill="black" fill-opacity="0.25"/>
</svg>
