<svg width="187" height="35" viewBox="0 0 187 35" fill="none" xmlns="http://www.w3.org/2000/svg">
<g clip-path="url(#clip0_985_467)">
<path d="M37.0587 34.1366V0.498169H61.576V5.87959H42.8151V14.5765H57.9492V19.7181H42.8151V28.7515H61.576V34.1366H37.0587Z" fill="white"/>
<path d="M67.6225 34.1366V14.53H64.4803V9.87541H67.6225V4.5835H72.9428V9.87004H80.2937V14.5246H72.9428V29.4694H80.5351V34.124L67.6225 34.1366Z" fill="white"/>
<path d="M84.9348 34.1366V0.498169H90.2065V13.3753H90.3507C91.0605 12.2224 92.1007 11.2533 93.4712 10.4679C94.8417 9.68263 96.4632 9.29057 98.3357 9.29177C101.339 9.29177 103.701 10.1964 105.422 12.0058C107.143 13.8151 108.005 16.3542 108.009 19.6232V34.1366H102.689V20.2014C102.689 18.12 102.173 16.5583 101.141 15.5164C100.109 14.4745 98.6918 13.9535 96.889 13.9535C95.6977 13.9279 94.5233 14.2369 93.5008 14.845C92.4784 15.453 91.6494 16.3354 91.1092 17.3908C90.4963 18.5535 90.1866 19.8504 90.2083 21.1628V34.1366H84.9348Z" fill="white"/>
<path d="M113.708 34.1365V9.87001H118.979V13.617H119.125C119.702 12.4303 120.597 11.4249 121.713 10.7114C122.888 9.9261 124.315 9.53345 125.992 9.53345H128.894V14.675H125.651C124.44 14.6484 123.242 14.9294 122.17 15.4913C121.19 16.0198 120.379 16.8105 119.828 17.7739C119.249 18.8092 118.957 19.9786 118.981 21.1628V34.1365H113.708Z" fill="white"/>
<path d="M142.821 34.1365C140.78 34.1509 138.777 33.5924 137.041 32.5253C135.26 31.4256 133.814 29.864 132.86 28.0086C131.827 26.0704 131.311 23.8839 131.312 21.4492C131.312 18.9823 131.828 16.7797 132.86 14.8415C133.814 12.986 135.26 11.4244 137.041 10.3247C138.776 9.25688 140.78 8.69832 142.821 8.71353C144.188 8.6846 145.547 8.9382 146.81 9.45826C147.833 9.8773 148.774 10.4704 149.592 11.2109C150.299 11.884 150.766 12.4127 150.993 12.797H151.139V9.29356H156.458V33.5601H151.139V30.0512H150.993C150.769 30.4678 150.302 31.0048 149.592 31.6625C147.73 33.3064 145.311 34.1907 142.821 34.1383V34.1365ZM143.886 29.482C145.186 29.4964 146.466 29.1558 147.585 28.4973C148.708 27.8283 149.614 26.8527 150.195 25.6867C150.825 24.4693 151.139 23.0598 151.139 21.4582C151.139 19.8243 150.825 18.3987 150.195 17.1813C149.614 16.015 148.708 15.0389 147.585 14.3688C146.465 13.7111 145.186 13.3706 143.886 13.3842C142.595 13.3689 141.325 13.7175 140.225 14.3895C139.125 15.0615 138.239 16.0295 137.67 17.1813C137.041 18.3987 136.727 19.8243 136.728 21.4582C136.728 23.061 137.042 24.4705 137.67 25.6867C138.24 26.838 139.126 27.8055 140.226 28.4772C141.326 29.1489 142.595 29.4972 143.886 29.482Z" fill="white"/>
<path d="M162.503 34.1366V0.498169H167.774V29.4748H173.336V34.1294L162.503 34.1366Z" fill="white"/>
<path d="M113.708 34.1365V9.87001H118.979V13.617H119.125C119.702 12.4303 120.597 11.4249 121.713 10.7114C122.888 9.9261 124.315 9.53345 125.992 9.53345H128.894V14.675H125.651C124.44 14.6484 123.242 14.9294 122.17 15.4913C121.19 16.0198 120.379 16.8105 119.828 17.7739C119.249 18.8092 118.957 19.9786 118.981 21.1628V34.1365H113.708Z" fill="white"/>
<path d="M15.6926 0.5H7.84631V8.29644H15.6926V0.5Z" fill="#D9E915"/>
<path d="M7.84632 8.29639H0V16.0928H7.84632V8.29639Z" fill="#D9E915"/>
<path d="M26.3874 0.5H18.5411V8.29644H26.3874V0.5Z" fill="#D9E915"/>
<path d="M15.6926 26.7036H7.84631V34.5001H15.6926V26.7036Z" fill="#D9E915"/>
<path d="M7.84632 18.9071H0V26.7035H7.84632V18.9071Z" fill="#D9E915"/>
<path d="M26.3874 26.7036H18.5411V34.5001H26.3874V26.7036Z" fill="#D9E915"/>
<path d="M26.3874 13.6008H18.5411V21.3973H26.3874V13.6008Z" fill="#D9E915"/>
</g>
<defs>
<clipPath id="clip0_985_467">
<rect width="187" height="34" fill="white" transform="translate(0 0.5)"/>
</clipPath>
</defs>
</svg>
