<svg width="13" height="12" viewBox="0 0 13 12" fill="none" xmlns="http://www.w3.org/2000/svg">
<path d="M11.475 0H0.525C0.225 0 0 0.225 0 0.525V11.55C0 11.775 0.225 12 0.525 12H11.55C11.85 12 12.075 11.775 12.075 11.475V0.525C12 0.225 11.775 0 11.475 0ZM3.525 10.2H1.8V4.5H3.6V10.2H3.525ZM2.7 3.75C2.1 3.75 1.65 3.375 1.65 2.85C1.65 2.325 2.1 1.95 2.7 1.95C3.3 1.95 3.75 2.325 3.75 2.85C3.75 3.375 3.3 3.75 2.7 3.75ZM10.2 10.2H8.4V7.425C8.4 6.75 8.4 5.925 7.5 5.925C6.6 5.925 6.45 6.675 6.45 7.425V10.2H4.65V4.5H6.375V5.25C6.6 4.8 7.2 4.35 8.025 4.35C9.825 4.35 10.125 5.55 10.125 7.05V10.2H10.2Z" fill="white"/>
</svg>
