<svg width="22" height="22" viewBox="0 0 22 22" fill="none" xmlns="http://www.w3.org/2000/svg">
<path d="M11.1789 1C8.17088 1 6.22088 3.019 3.91488 3.755C2.97688 4.055 2.50788 4.204 2.31788 4.415C2.12788 4.625 2.07288 4.934 1.96188 5.55C0.771879 12.146 3.37188 18.244 9.57188 20.618C10.2369 20.873 10.5699 21 11.1819 21C11.7939 21 12.1279 20.872 12.7939 20.617C18.9929 18.244 21.5899 12.146 20.3999 5.55C20.2889 4.934 20.2329 4.625 20.0429 4.414C19.8529 4.203 19.3849 4.054 18.4469 3.755C16.1399 3.019 14.1869 1 11.1789 1Z" stroke="#D9E915" stroke-width="1.5" stroke-linecap="round" stroke-linejoin="round"/>
<path d="M8.18091 12C8.18091 12 9.18091 12 10.1809 14C10.1809 14 13.3579 9 16.1809 8" stroke="#D9E915" stroke-width="1.5" stroke-linecap="round" stroke-linejoin="round"/>
</svg>
