<svg width="130" height="33" viewBox="0 0 130 33" fill="none" xmlns="http://www.w3.org/2000/svg">
<path d="M41.9605 12.6216C41.9605 10.3195 39.6937 7.87458 35.7709 7.87458C31.3659 7.87458 26.5268 11.0657 25.7872 17.432C25.0316 23.8619 29.083 26.7196 33.1665 26.7196C37.25 26.7196 39.3882 25.1479 41.5747 23.0522C39.6937 20.7184 37.2661 21.798 36.7998 22.0361C36.2854 22.2902 35.6262 22.6394 34.2758 22.6394C32.7003 22.6394 31.0926 21.9409 31.0926 19.0355C41.1888 18.0512 41.9605 14.9236 41.9605 12.6216ZM36.9606 13.0026C36.8963 13.717 36.6069 14.9395 31.4945 15.6222C32.5716 11.8436 34.6295 11.5579 35.578 11.5579C36.4622 11.5579 37.0249 12.2405 36.9606 13.0026ZM19.8549 13.6218C19.8549 13.6218 17.6845 20.3533 17.5077 20.9089C17.4434 20.3374 15.8517 8.25561 15.8517 8.25561C12.1541 8.25561 10.1766 10.8593 9.13163 13.6059C9.13163 13.6059 6.49504 20.3533 6.26996 20.9248C6.25388 20.4009 5.86804 13.6853 5.86804 13.6853C5.64296 10.3195 2.52406 8.27149 0 8.27149L3.0546 26.5767C6.92911 26.5608 9.0191 23.973 10.1123 21.2264C10.1123 21.2264 12.4435 15.2729 12.5399 15.003C12.556 15.257 14.2119 26.5767 14.2119 26.5767C18.1025 26.5767 20.1925 24.1477 21.3179 21.4963L26.7679 8.27149C22.9255 8.27149 20.8999 10.8593 19.8549 13.6218ZM56.2367 7.84283C53.8413 7.84283 52.0085 9.1288 50.4651 11.0181V11.0022L51.8477 0C48.6645 0 46.0762 2.7307 45.5778 6.795L43.1663 26.4338C44.999 26.4338 46.9443 25.9099 47.9893 24.5763C48.9218 25.767 50.3204 26.7196 52.3944 26.7196C57.764 26.7196 61.4456 20.5597 61.4456 14.7807C61.4135 9.50983 58.8251 7.84283 56.2367 7.84283ZM55.7383 17.2892C55.1757 20.512 53.359 22.7029 51.6066 22.7029C49.8381 22.7029 49.0825 21.925 49.0825 21.925C49.4201 19.099 49.6292 17.3685 50.2722 15.8762C50.9153 14.3838 52.4426 12.0024 54.0342 12.0024C55.5936 12.0024 56.301 14.0504 55.7383 17.2892ZM74.8537 8.27149H71.1078L71.1239 8.08098C71.3811 5.6678 71.9599 4.3977 73.873 4.19131C75.1752 4.0643 75.754 3.3975 75.8987 2.6672C76.0112 2.09566 76.3649 0.111133 76.3649 0.111133C68.841 0.0635047 66.4777 3.27049 65.8667 8.16036L65.8507 8.27149H65.7703C64.5484 8.27149 63.198 9.63684 62.9729 11.3673L62.8925 12.0024H65.4005L63.2944 29.1804L62.6514 32.2604C62.7318 32.2604 62.8282 32.2763 62.9086 32.2763C66.4294 32.1493 68.6802 29.4027 69.1786 25.4178L70.8184 12.0024H71.992C73.1495 12.0024 74.5 10.8593 74.7411 8.95416L74.8537 8.27149ZM94.3388 7.95397C90.0141 7.95397 85.9306 11.0974 84.6766 16.0349C83.4226 20.9724 85.3197 26.8149 91.6861 26.8149C98.0365 26.8149 101.702 20.7343 101.702 15.6698C101.702 10.637 98.2455 7.95397 94.3388 7.95397ZM96.0912 17.1304C95.8661 19.3689 94.8693 22.7664 92.1363 22.7664C89.3871 22.7664 89.773 18.7974 90.0463 16.9081C90.3357 14.8919 91.4771 12.0183 93.9369 12.0183C96.1394 12.0183 96.3484 14.6061 96.0912 17.1304ZM123.068 13.6218C123.068 13.6218 120.898 20.3533 120.721 20.9089C120.657 20.3374 119.065 8.25561 119.065 8.25561C115.367 8.25561 113.39 10.8593 112.345 13.6059C112.345 13.6059 109.708 20.3533 109.483 20.9248C109.467 20.4009 109.081 13.6853 109.081 13.6853C108.856 10.3195 105.737 8.27149 103.213 8.27149L106.252 26.5767C110.126 26.5608 112.216 23.973 113.309 21.2264C113.309 21.2264 115.641 15.2729 115.721 15.003C115.753 15.257 117.393 26.5767 117.393 26.5767C121.284 26.5767 123.374 24.1477 124.499 21.4963L129.949 8.27149C126.123 8.27149 124.097 10.8593 123.068 13.6218ZM78.3906 0.111133L75.2395 25.2114L74.5965 28.3072C74.6768 28.3072 74.7733 28.3231 74.8537 28.3231C78.2459 28.2755 80.6574 25.3384 81.1076 21.6392L82.9242 7.23954C83.4709 2.84184 80.8182 0.111133 78.3906 0.111133Z" fill="#4353FF"/>
</svg>
