<svg width="93" height="42" viewBox="0 0 93 42" fill="none" xmlns="http://www.w3.org/2000/svg">
<path fill-rule="evenodd" clip-rule="evenodd" d="M62.667 4.80395H59.251L61.6666 2.42477C61.4766 2.16209 61.2647 1.91559 61.0338 1.68828C60.8031 1.46098 60.5535 1.25286 60.2867 1.06575L57.8713 3.44493V0.0803658C57.5552 0.028188 57.23 0.000599744 56.8994 0H56.8927C56.5615 0.000599744 56.237 0.028188 55.9209 0.0803658V3.44493L53.5054 1.06575C53.2386 1.25286 52.9885 1.46098 52.7582 1.68828L52.757 1.68949C52.5263 1.91618 52.3149 2.16209 52.1256 2.42477L54.5412 4.80395H51.1252C51.1252 4.80395 51.0436 5.43549 51.0436 5.76235V5.76654C51.0436 6.0928 51.0716 6.41367 51.1252 6.72554H54.5412L52.1256 9.10413C52.5056 9.62951 52.972 10.0895 53.5054 10.4631L55.9209 8.08395V11.4485C56.237 11.5007 56.5608 11.5283 56.8915 11.529H56.9C57.2306 11.5283 57.5558 11.5007 57.8713 11.4485V8.08395L60.2874 10.4631C60.5535 10.2766 60.8031 10.0679 61.0338 9.84062H61.0345C61.2647 9.61331 61.4766 9.36681 61.6666 9.10413L59.2504 6.72554H62.667C62.72 6.41427 62.748 6.0946 62.748 5.76835V5.76055C62.748 5.43429 62.72 5.11522 62.667 4.80395ZM68.3818 29.3078C67.4063 28.4052 66.8954 26.9814 66.848 25.0364H79.1521C79.1753 24.7821 79.199 24.4762 79.2221 24.1164C79.2459 23.7577 79.2581 23.4165 79.2581 23.092C79.2581 21.9111 79.0931 20.8178 78.7642 19.8108C78.4349 18.8039 77.9532 17.936 77.3193 17.2067C76.6842 16.4774 75.8969 15.9047 74.9568 15.4879C74.0166 15.0711 72.9237 14.8624 71.6785 14.8624C70.2207 14.8624 68.9573 15.1112 67.888 15.609C66.8188 16.1074 65.9316 16.7785 65.2265 17.623C64.5219 18.4686 63.9983 19.4636 63.658 20.6091C63.3169 21.7558 63.1465 22.9882 63.1465 24.3071C63.1465 25.6506 63.3231 26.883 63.6755 28.0057C64.0281 29.1285 64.5865 30.1013 65.35 30.9229C66.1137 31.7446 67.0836 32.3809 68.2589 32.8325C69.4334 33.2841 70.8436 33.5097 72.4895 33.5097C73.6172 33.5097 74.6451 33.428 75.5742 33.2668C76.5016 33.1042 77.354 32.8619 78.1297 32.5375C78.106 32.0511 78.036 31.5599 77.9185 31.0614C77.8004 30.5637 77.6481 30.1415 77.4599 29.7942C75.9554 30.3729 74.3698 30.6626 72.7007 30.6626C70.7967 30.6626 69.3573 30.2104 68.3818 29.3078ZM35.4372 15.279C35.6717 15.2334 35.9128 15.1986 36.1595 15.1752C36.4066 15.1523 36.6587 15.1404 36.9175 15.1404C37.152 15.1404 37.3991 15.1523 37.6579 15.1752C37.916 15.1986 38.1633 15.2334 38.3983 15.279C38.4215 15.3263 38.4514 15.4702 38.486 15.7137C38.5213 15.9566 38.5567 16.2169 38.592 16.4946C38.6274 16.7723 38.6626 17.0392 38.6979 17.2935C38.7333 17.5483 38.7503 17.7103 38.7503 17.7799C38.9854 17.4092 39.2673 17.0506 39.5967 16.7033C39.9255 16.3561 40.32 16.043 40.7779 15.7659C41.2359 15.4877 41.7529 15.2682 42.3294 15.1062C42.9043 14.9442 43.5448 14.8627 44.2505 14.8627C45.3077 14.8627 46.2891 15.0366 47.1947 15.3839C48.0988 15.7311 48.874 16.2691 49.5206 16.9978C50.1667 17.7276 50.672 18.6537 51.0368 19.7758C51.4009 20.8998 51.5829 22.2239 51.5829 23.7521C51.5829 26.8078 50.7427 29.1984 49.0627 30.9226C47.3816 32.6475 45.0025 33.51 41.9233 33.51C41.4063 33.51 40.8779 33.4752 40.3371 33.4056C39.7957 33.3361 39.3263 33.2431 38.9269 33.128V41.288C38.6449 41.3336 38.3453 41.3684 38.0281 41.3918C37.7109 41.4145 37.4222 41.4266 37.1641 41.4266C36.9053 41.4266 36.6179 41.4145 36.3007 41.3918C35.9835 41.3684 35.6954 41.3336 35.4372 41.288V15.279ZM28.2098 21.3562C28.2098 19.99 27.8572 19.0411 27.1522 18.5086C26.447 17.9766 25.4246 17.7103 24.085 17.7103C23.2618 17.7103 22.4928 17.7745 21.776 17.9011C21.0588 18.0288 20.3591 18.1961 19.6784 18.4042C19.2314 17.6402 19.0086 16.7267 19.0086 15.661C19.8068 15.4067 20.688 15.21 21.6525 15.0708C22.6158 14.9317 23.5438 14.8627 24.4376 14.8627C26.7874 14.8627 28.5738 15.39 29.7959 16.4425C31.018 17.4962 31.6294 19.1804 31.6294 21.4948V32.6416C30.8068 32.827 29.8081 33.0176 28.633 33.2144C27.4572 33.4105 26.2582 33.5094 25.0367 33.5094C23.8847 33.5094 22.8453 33.4057 21.9167 33.197C20.9881 32.9883 20.2008 32.6536 19.5548 32.1894C18.9081 31.7276 18.4089 31.1363 18.0563 30.4189C17.7037 29.7017 17.5277 28.8338 17.5277 27.8142C17.5277 26.8199 17.7329 25.9455 18.1445 25.1928C18.5556 24.4413 19.1139 23.8158 19.819 23.3179C20.5242 22.8208 21.3352 22.4495 22.2516 22.2072C23.1687 21.9637 24.132 21.842 25.1427 21.842C25.8947 21.842 26.5115 21.86 26.9931 21.8941C27.4749 21.9296 27.8803 21.9698 28.2098 22.0159V21.3562ZM0.746582 32.6071L10.2656 18.0226H1.87489C1.80425 17.6057 1.76893 17.1433 1.76893 16.6335C1.76893 16.1477 1.80425 15.6955 1.87489 15.2787H15.448L15.624 15.7309L6.03493 30.3497H15.0248C15.0948 30.8134 15.1307 31.2871 15.1307 31.7729C15.1307 32.2372 15.0948 32.6761 15.0248 33.0935H0.923165L0.746582 32.6071ZM26.8701 24.5858C27.4109 24.6326 27.8572 24.6781 28.2098 24.7244V30.3847C27.7628 30.5005 27.252 30.5869 26.6759 30.6445C26.1005 30.7033 25.5422 30.732 25.0015 30.732C24.5788 30.732 24.132 30.7092 23.6619 30.6624C23.1918 30.6157 22.7631 30.4885 22.3753 30.2804C21.9874 30.0717 21.6641 29.7712 21.4059 29.3772C21.1464 28.9843 21.018 28.4397 21.018 27.7452C21.018 26.6579 21.3992 25.8477 22.1639 25.3146C22.9269 24.7825 24.0376 24.5157 25.4953 24.5157C25.871 24.5157 26.3295 24.5397 26.8701 24.5858ZM40.3018 30.5233C39.8317 30.4543 39.3726 30.3386 38.9269 30.176V22.9538C38.9269 22.0734 39.056 21.3166 39.3154 20.679C39.5736 20.0427 39.914 19.5155 40.3371 19.0986C40.7604 18.6818 41.2414 18.3694 41.7826 18.1619C42.3227 17.9532 42.8872 17.8489 43.4748 17.8489C45.0488 17.8489 46.1832 18.3933 46.8767 19.4807C47.5697 20.5693 47.9168 22.0392 47.9168 23.8912C47.9168 25.0488 47.7694 26.0497 47.4759 26.8941C47.1818 27.7398 46.7823 28.4397 46.277 28.9951C45.7722 29.5511 45.167 29.9631 44.4618 30.2281C43.7567 30.4945 42.9816 30.6276 42.1352 30.6276C41.3826 30.6276 40.7719 30.5923 40.3018 30.5233ZM55.9195 17.9878H53.6276C53.5807 17.8025 53.5454 17.5884 53.5223 17.3455C53.4984 17.1026 53.4869 16.8651 53.4869 16.6335C53.4869 16.4027 53.4984 16.1646 53.5223 15.9217C53.5454 15.6788 53.5807 15.4647 53.6276 15.2787H59.3398V33.0935C59.0803 33.1391 58.793 33.1733 58.4757 33.1967C58.1585 33.2195 57.8699 33.2315 57.6117 33.2315C57.3766 33.2315 57.1002 33.2195 56.7835 33.1967C56.4657 33.1733 56.1777 33.1391 55.9195 33.0935V17.9878ZM75.8032 22.4676C75.8032 21.8194 75.7149 21.2004 75.5389 20.6091C75.3623 20.019 75.1035 19.5043 74.7632 19.0642C74.4215 18.6245 73.9874 18.2713 73.4583 18.0056C72.9297 17.7394 72.3007 17.6056 71.5724 17.6056C70.1385 17.6056 69.04 18.0344 68.2758 18.8909C67.5123 19.7472 67.0483 20.9396 66.8833 22.4676H75.8032ZM83.8428 15.1752C83.6077 15.1986 83.3606 15.2334 83.1024 15.279V33.0932C83.3843 33.1388 83.6838 33.1735 84.0017 33.197C84.3189 33.2198 84.6064 33.2317 84.8657 33.2317C85.1233 33.2317 85.412 33.2198 85.7286 33.197C86.0458 33.1735 86.3338 33.1388 86.5926 33.0932V24.238C86.5926 23.0348 86.7277 22.0507 86.9981 21.2872C87.2679 20.5231 87.6326 19.921 88.0905 19.4808C88.549 19.0411 89.0653 18.7347 89.642 18.5608C90.218 18.3875 90.8233 18.3005 91.4578 18.3005H91.9333C92.1331 18.3005 92.3267 18.3239 92.5154 18.3695C92.5623 18.0924 92.6037 17.8027 92.6391 17.5016C92.6737 17.2012 92.6914 16.9115 92.6914 16.6338C92.6914 16.3789 92.6799 16.136 92.656 15.9045C92.6329 15.6736 92.597 15.4529 92.5507 15.2442C92.4101 15.222 92.2384 15.2046 92.0392 15.1926C91.8395 15.1806 91.6453 15.1752 91.4578 15.1752C90.1881 15.1752 89.1488 15.4649 88.3377 16.043C87.5273 16.6218 86.8746 17.3055 86.3813 18.0924C86.3813 17.6984 86.3454 17.2185 86.2753 16.6506C86.2048 16.0845 86.1341 15.6262 86.0641 15.279C85.8522 15.2334 85.6171 15.1986 85.359 15.1752C85.0996 15.1525 84.8414 15.1404 84.5832 15.1404C84.3245 15.1404 84.0772 15.1525 83.8428 15.1752ZM58.1343 6.98402C58.2792 6.60499 58.359 6.19536 58.359 5.76714V5.76174C58.359 5.33353 58.2792 4.92331 58.1343 4.54486C57.75 4.40213 57.3336 4.32356 56.8989 4.32356H56.8933C56.4585 4.32356 56.0421 4.40213 55.6572 4.54486C55.513 4.92331 55.4331 5.33353 55.4325 5.76174V5.76714C55.4331 6.19536 55.513 6.60559 55.6578 6.98402C56.0421 7.12677 56.4585 7.20534 56.8933 7.20534H56.8989C57.3336 7.20534 57.75 7.12677 58.1343 6.98402Z" fill="#FF4A00"/>
</svg>
